{"title":"The Recruit - S02E10","uid":15896082,"size":1498008491,"categoryP":"video","categoryS":"tv_shows","magnet":"?xt=urn:btih:00f77740b85524316f476243fb1f72209cc448eb&amp;dn=The+Recruit+-+S02E10&amp;tr=udp%3A%2F%2Ftracker.leechers-paradise.org%3A6969&amp;tr=udp%3A%2F%2Fzer0day.ch%3A1337&amp;tr=udp%3A%2F%2Fopen.demonii.com%3A1337&amp;tr=udp%3A%2F%2Ftracker.coppersurfer.tk%3A6969&amp;tr=udp%3A%2F%2Fexodus.desync.com%3A6969","seeders":4,"leechers":2,"uploader":"Bullrout","files":1,"time":1474804846,"description":"The Recruit - S02E10\r\n\r\nFormer AFL player and Coach, Mick Malthouse, joined by former Hawthorn champion and Fox Footy commentator Ben Dixon, Port Adelaide's world class fitness guru Darren Burgess, and accomplished sports administrator Leigh Russell have seen 15 Recruits from across the country put through their paces. Now the final three Recruits face the Judges and 18 AFL Reps at the Melbourne Crown, where Ryan 'Fitzy' Fitzgerald hosts the draft to announce the winner of an AFL club contract.\r\n\r\n\r\nComplete name                            : The Recruit - S02E10.mkv\r\nFormat                                   : Matroska\r\nFormat version                           : Version 4 / Version 2\r\nFile size                                : 1.40 GiB\r\nDuration                                 : 1 h 0 min\r\nOverall bit rate mode                    : Variable\r\nOverall bit rate                         : 3 320 kb/s\r\nEncoded date                             : UTC 2016-09-24 04:36:48\r\nWriting application                      : mkvmerge v9.4.2 ('So High') 64bit\r\nWriting library                          : libebml v1.3.4 + libmatroska v1.4.5\r\n\r\nVideo\r\nID                                       : 2\r\nFormat                                   : AVC\r\nFormat/Info                              : Advanced Video Codec\r\nFormat profile                           :   \r\nFormat settings, CABAC                   : Yes\r\nFormat settings, ReFrames                : 3 frames\r\nCodec ID                                 : V_MPEG4/ISO/AVC\r\nDuration                                 : 1 h 0 min\r\nBit rate mode                            : Variable\r\nBit rate                                 : 2 934 kb/s\r\nMaximum bit rate                         : 3 000 kb/s\r\nWidth                                    : 1 280 pixels\r\nHeight                                   : 720 pixels\r\nDisplay aspect ratio                     : 16:9\r\nFrame rate mode                          : Constant\r\nFrame rate                               : 25.000 FPS\r\nStandard                                 : PAL\r\nColor space                              : YUV\r\nChroma subsampling                       : 4:2:0\r\nBit depth                                : 8 bits\r\nScan type                                : Progressive\r\nBits/(Pixel*Frame)                       : 0.127\r\nStream size                              : 1.23 GiB (88%)\r\nWriting library                          : x264 core 112\r\nDefault                                  : Yes\r\nForced                                   : No\r\nColor range                              : Limited\r\nColor primaries                          : BT.709\r\nTransfer characteristics                 : BT.709\r\nMatrix coefficients                      : BT.709\r\n\r\nAudio\r\nID                                       : 1\r\nFormat                                   : AC-3\r\nFormat/Info                              : Audio Coding 3\r\nMode extension                           : CM (complete main)\r\nFormat settings, Endianness              : Big\r\nCodec ID                                 : A_AC3\r\nDuration                                 : 1 h 0 min\r\nBit rate mode                            : Constant\r\nBit rate                                 : 384 kb/s\r\nChannel(s)                               : 6 channels\r\nChannel positions                        : Front: L C R, Side: L R, LFE\r\nSampling rate                            : 48.0 kHz\r\nFrame rate                               : 31.250 FPS (1536 spf)\r\nCompression mode                         : Lossy\r\nStream size                              : 165 MiB (12%)\r\nDefault                                  : Yes\r\nForced                                   : No","torrent":{"xt":"urn:btih:00f77740b85524316f476243fb1f72209cc448eb","amp;dn":"The+Recruit+-+S02E10","amp;tr":["udp%3A%2F%2Ftracker.leechers-paradise.org%3A6969","udp%3A%2F%2Fzer0day.ch%3A1337","udp%3A%2F%2Fopen.demonii.com%3A1337","udp%3A%2F%2Ftracker.coppersurfer.tk%3A6969","udp%3A%2F%2Fexodus.desync.com%3A6969"],"infoHash":"00f77740b85524316f476243fb1f72209cc448eb","infoHashBuffer":{"type":"Buffer","data":[0,247,119,64,184,85,36,49,111,71,98,67,251,31,114,32,156,196,72,235]},"announce":[],"urlList":[]}}